# xmcd
#
# Track frame offsets:
#        150
#        46965
#        77355
#        116985
#        136023
#        170745
#        182858
#
# Disc length: 2778 seconds
#
# Revision: 0
# Processed by: cddbd v1.5.1PL0 Copyright (c) Steve Scherf et al.
# Submitted via: ExactAudioCopy v0.95a5
#
DISCID=580ad807
DTITLE=George Winston - Autumn
DYEAR=1997
DGENRE=Classical
TTITLE0=Colors/Dance
TTITLE1=Woods
TTITLE2=Longing/Love
TTITLE3=Road
TTITLE4=Moon
TTITLE5=Sea
TTITLE6=Stars
EXTD=
EXTT0=
EXTT1=
EXTT2=
EXTT3=
EXTT4=
EXTT5=
EXTT6=
PLAYORDER=
